<?xml version="1.0" standalone="no"?>
<!DOCTYPE svg PUBLIC "-//W3C//DTD SVG 20010904//EN"
 "http://www.w3.org/TR/2001/REC-SVG-20010904/DTD/svg10.dtd">
<svg version="1.0" xmlns="http://www.w3.org/2000/svg"
 width="300.000000pt" height="300.000000pt" viewBox="0 0 300.000000 300.000000"
 preserveAspectRatio="xMidYMid meet">
<metadata>
Created by potrace 1.10, written by Peter Selinger 2001-2011
</metadata>
<g transform="translate(0.000000,300.000000) scale(0.100000,-0.100000)"
fill="#000000" stroke="none">
<path d="M1043 2608 c-38 -43 -84 -189 -77 -245 1 -7 2 -22 3 -33 1 -25 80
-112 127 -141 39 -24 42 -35 15 -44 -13 -4 -35 5 -66 30 -57 43 -80 49 -160
42 -70 -7 -140 -31 -169 -58 -60 -56 43 -227 164 -275 l41 -16 -33 -25 c-18
-13 -65 -42 -104 -64 -88 -48 -98 -59 -90 -101 3 -18 6 -72 7 -120 1 -76 3
-85 16 -72 19 18 26 18 47 -5 16 -18 15 -19 -22 -34 -41 -16 -52 -35 -52 -93
0 -41 67 -105 209 -200 56 -38 131 -88 165 -112 71 -49 150 -92 168 -92 7 0 4
6 -7 12 -49 28 -215 139 -215 144 0 3 10 19 21 36 l22 30 56 -55 c90 -88 206
-147 287 -147 26 0 34 -5 37 -23 4 -20 4 -20 6 -2 1 14 12 25 34 33 60 23 98
71 130 167 8 22 18 38 23 35 5 -3 8 -8 7 -12 -2 -5 0 -7 5 -6 4 0 16 -2 27 -6
11 -5 25 -9 31 -11 13 -4 31 -206 20 -224 -8 -13 -46 -15 -46 -2 0 5 7 28 15
51 8 23 15 52 14 64 0 11 -10 -10 -22 -49 -13 -39 -26 -65 -30 -58 -4 6 -4 19
-1 30 4 14 4 15 -4 4 -8 -11 -15 -6 -34 24 l-24 39 23 48 c13 26 23 56 23 65
-1 10 -9 -4 -20 -30 -26 -66 -64 -113 -112 -138 -45 -23 -45 -37 1 -21 26 9
32 8 40 -6 8 -15 11 -13 20 11 6 16 11 33 11 38 0 27 43 -19 68 -73 2 -5 -18
-9 -45 -10 -35 -1 -26 -3 32 -8 116 -9 119 -5 112 131 l-5 106 51 7 c29 3 69
6 90 6 31 0 46 7 73 34 25 25 46 36 71 38 60 5 73 33 76 169 2 130 -4 145 -73
178 -52 24 -82 83 -74 146 3 28 13 63 21 78 9 18 12 40 8 59 -6 28 -5 30 11
23 84 -35 103 -38 151 -20 52 20 127 84 149 126 34 66 5 112 -95 150 -79 30
-136 29 -190 -3 -37 -22 -48 -24 -73 -16 -16 6 -28 14 -26 18 2 4 32 28 68 52
42 29 76 62 95 93 28 46 30 54 30 156 0 88 -3 111 -17 125 -24 25 -45 11 -58
-38 -36 -134 -56 -157 -155 -179 -53 -12 -64 -9 -150 38 -37 20 -111 28 -145
15 -17 -6 -34 -5 -57 4 -17 8 -66 15 -107 16 -64 2 -80 -1 -105 -20 -38 -28
-82 -28 -139 -1 -54 26 -65 53 -59 140 6 96 -17 125 -60 77z m49 -203 c3 -6
34 -24 67 -39 33 -16 62 -34 65 -41 6 -17 -10 -95 -22 -107 -8 -8 -22 -4 -48
11 -20 12 -39 20 -41 17 -3 -2 14 -14 36 -26 40 -20 47 -40 15 -40 -23 0 -95
52 -137 99 -33 36 -37 47 -37 94 0 55 17 123 45 178 36 71 40 68 45 -37 3 -54
8 -104 12 -109z m982 27 c0 -135 -20 -170 -141 -248 -29 -19 -54 -34 -56 -34
-2 0 -7 23 -10 51 -4 28 -13 62 -22 75 -19 30 -19 34 5 34 10 0 45 9 75 21 66
24 89 55 105 139 16 81 18 86 33 71 8 -8 12 -46 11 -109z m-573 -58 c33 -14
47 -15 78 -5 67 20 137 -4 190 -64 17 -20 31 -33 31 -29 0 4 -7 16 -17 26 -13
14 -13 18 -2 18 8 0 19 -4 26 -8 18 -11 43 -77 42 -109 -1 -15 -3 -21 -6 -12
-3 13 -57 53 -73 54 -3 0 -11 4 -19 9 -10 6 -12 5 -7 -2 12 -19 -9 -14 -39 9
-22 18 -29 20 -36 8 -8 -12 -10 -12 -19 1 -6 10 -10 11 -10 3 0 -15 -76 -18
-82 -4 -1 5 -8 3 -15 -4 -9 -10 -7 -22 10 -56 18 -35 28 -45 52 -47 30 -3 55
-25 55 -49 0 -7 -6 -13 -14 -13 -22 0 -56 -49 -56 -81 0 -26 -3 -29 -35 -29
-29 0 -37 5 -51 33 -36 70 -89 117 -132 117 -14 0 -26 9 -32 23 l-10 22 3 -24
c3 -32 -19 -38 -27 -7 -7 30 2 58 17 49 5 -3 7 -2 4 4 -14 23 112 52 139 32
16 -13 52 1 57 21 4 17 3 18 -17 5 -17 -11 -23 -11 -33 0 -6 7 -9 16 -5 20 4
4 -7 0 -25 -9 -38 -19 -57 -21 -47 -4 5 8 2 9 -12 4 -40 -17 -54 -18 -54 -5 0
10 -3 10 -12 1 -10 -10 -10 -15 1 -22 12 -7 10 -13 -11 -31 -22 -20 -24 -26
-15 -55 11 -35 -5 -70 -26 -57 -6 4 -7 1 -2 -6 4 -7 -1 -22 -13 -34 -37 -42
-55 -213 -27 -267 16 -31 64 -64 107 -75 16 -4 25 -12 21 -18 -3 -6 -1 -7 6
-3 6 4 9 12 6 17 -6 8 9 13 28 10 5 -1 6 3 3 8 -11 18 37 38 74 30 74 -16 92
-85 36 -146 -36 -41 -61 -83 -49 -83 4 1 28 26 53 57 37 46 44 63 44 95 -2 49
-26 77 -76 85 -44 6 -34 23 14 23 19 0 34 10 50 30 l22 30 59 -118 c33 -64 66
-125 75 -134 14 -17 13 -18 -19 -18 -53 0 -101 -31 -128 -83 -27 -53 -33 -52
-97 8 -20 19 -38 35 -40 35 -13 0 -86 91 -91 113 -3 15 -10 30 -16 34 -18 11
3 -51 25 -74 40 -43 3 -23 -60 32 -56 49 -68 55 -108 55 -24 0 -44 -5 -44 -10
0 -6 18 -10 43 -9 36 2 51 -3 84 -30 40 -32 41 -34 31 -69 -14 -50 -5 -160 16
-201 10 -18 16 -35 13 -37 -8 -8 -86 61 -118 104 -47 64 -71 136 -76 233 -7
113 2 176 27 184 20 6 46 62 54 121 4 26 0 18 -13 -25 -22 -73 -44 -102 -63
-83 -10 10 -7 17 16 36 26 20 30 31 34 85 4 53 1 67 -17 91 -26 35 -13 46 34
29 32 -12 37 -11 60 11 14 13 25 28 25 33 0 6 -10 1 -23 -11 -27 -25 -27 -25
-63 -11 l-28 10 24 12 c38 19 62 73 57 130 -4 47 -3 48 22 45 14 -2 24 -7 23
-13 -2 -5 -8 -9 -13 -7 -11 3 -12 -15 -1 -21 4 -3 16 7 26 21 11 14 14 22 8
18 -7 -4 -12 -3 -12 3 0 38 138 54 211 25z m168 -160 c14 -31 15 -55 1 -34 -6
10 -10 11 -10 3 0 -8 -14 -13 -35 -13 -29 0 -39 6 -55 32 -10 17 -17 34 -15
37 1 3 25 4 53 3 41 -3 51 -8 61 -28z m45 10 c6 0 27 -2 47 -2 31 -2 42 -9 77
-57 l42 -55 -20 -33 c-11 -17 -20 -47 -20 -64 0 -46 -32 -45 -48 2 -15 39 -64
85 -92 85 -18 0 -40 27 -40 48 0 5 9 12 20 15 19 5 19 7 5 47 -14 39 -14 41 1
29 9 -8 22 -14 28 -15z m-703 -55 c76 -48 109 -92 109 -142 0 -23 -7 -53 -16
-65 -8 -12 -11 -22 -6 -22 11 0 42 72 42 98 0 9 -9 32 -20 50 -19 30 -19 33
-4 30 10 -2 18 -7 18 -13 0 -5 6 -16 13 -23 16 -16 16 -65 0 -112 -10 -30 -17
-35 -47 -37 -19 -1 -62 -11 -96 -23 -52 -19 -67 -20 -102 -11 -89 24 -210 178
-182 231 14 26 40 39 113 55 97 21 125 19 178 -16z m393 -53 c38 -16 84 -78
109 -146 39 -110 31 -160 -26 -160 -22 0 -49 -12 -85 -40 -45 -33 -57 -38 -77
-30 -75 28 -105 74 -105 159 0 45 2 49 20 44 12 -3 27 -20 34 -38 16 -38 43
-50 90 -41 23 5 37 2 46 -9 12 -15 40 -21 40 -9 0 4 -14 31 -31 61 -17 30 -29
57 -25 60 8 8 -30 54 -62 75 -33 22 -39 22 -39 3 0 -8 15 -19 34 -26 18 -6 36
-15 39 -21 4 -6 -1 -6 -14 1 -11 6 -31 11 -44 11 -17 -1 -13 -5 16 -15 22 -8
44 -11 50 -8 7 4 8 3 1 -4 -14 -14 -89 -27 -81 -14 4 5 -6 5 -24 -2 -37 -14
-41 -10 -33 37 4 27 19 53 48 82 45 47 65 52 119 30z m812 -22 c52 -25 59 -33
62 -61 3 -26 -5 -41 -38 -77 -23 -25 -66 -57 -95 -71 -46 -23 -58 -25 -92 -16
-43 12 -81 36 -72 45 3 4 26 -3 50 -14 53 -24 77 -26 60 -6 -9 11 -6 21 16 46
15 18 28 40 29 48 3 18 -53 -46 -61 -70 -8 -24 -26 -23 -59 3 -30 23 -35 45
-8 34 37 -16 55 -15 20 1 -44 19 -46 24 -15 51 43 40 69 48 147 44 74 -3 105
-14 94 -33 -7 -11 -71 -8 -98 5 -14 7 -17 6 -14 -4 3 -8 20 -16 39 -20 19 -3
40 -8 46 -12 16 -10 46 28 39 51 -7 20 -64 46 -127 57 -43 8 -70 -4 -121 -53
l-37 -35 -10 25 c-5 14 -17 33 -27 43 -17 17 -17 17 1 12 12 -4 39 4 65 19 59
32 126 28 206 -12z m-300 -16 c8 -6 4 -22 -12 -55 -24 -45 -34 -130 -14 -118
5 3 7 12 3 21 -7 19 16 100 32 114 15 12 29 -3 39 -42 3 -14 9 -33 12 -42 4
-11 1 -16 -11 -16 -9 0 -14 4 -10 9 3 5 0 13 -6 17 -8 4 -9 3 -5 -4 4 -7 3
-12 -2 -12 -7 0 -32 -84 -32 -111 0 -5 9 -4 20 3 29 18 36 2 17 -37 -9 -20
-17 -49 -17 -65 0 -16 -4 -32 -10 -35 -9 -6 -13 15 -14 88 -1 15 -6 31 -12 35
-19 13 -44 92 -44 142 0 58 27 133 44 123 6 -3 16 -10 22 -15z m-178 -4 c29
-20 59 -77 43 -82 -6 -2 -11 -8 -11 -13 0 -6 5 -7 10 -4 20 13 9 -27 -15 -50
-38 -39 -109 -29 -141 20 -24 37 -11 41 24 5 32 -31 68 -38 102 -20 26 14 22
93 -6 120 -46 45 -114 26 -117 -33 -1 -15 -8 -27 -14 -27 -21 0 -15 58 7 80
24 24 86 27 118 4z m-33 -34 c56 -21 52 -100 -5 -100 -49 0 -78 61 -44 94 18
19 16 19 49 6z m-115 -69 c0 -22 54 -71 87 -80 49 -14 101 8 116 49 20 52 43
39 50 -28 8 -74 41 -180 82 -264 l33 -68 -26 7 c-15 4 -69 7 -119 7 -51 1 -93
3 -93 6 0 3 -30 59 -67 125 -141 255 -141 255 -93 255 17 0 30 -4 30 -9z
m-220 -36 c16 -20 1 -39 -26 -33 -27 5 -32 48 -6 48 11 0 25 -7 32 -15z m-300
-33 c0 -5 -18 -23 -39 -40 -78 -62 -128 -218 -116 -355 l6 -62 -93 -60 c-51
-33 -97 -60 -103 -60 -5 0 -10 15 -11 33 -1 28 3 35 25 43 41 16 71 49 102
114 37 77 38 126 3 154 l-26 20 22 31 c12 16 18 30 13 30 -5 0 -16 -13 -26
-29 -11 -20 -28 -31 -52 -35 -19 -4 -37 -12 -41 -18 -5 -8 -1 -9 10 -5 51 20
65 19 91 -7 22 -22 25 -32 19 -63 -9 -55 -36 -94 -54 -83 -12 8 -11 10 5 10
15 0 16 3 7 12 -9 9 -18 6 -38 -13 l-27 -24 27 41 c33 51 44 105 24 122 -11 9
-23 7 -52 -7 -25 -13 -33 -15 -25 -5 8 10 9 14 0 14 -7 0 -10 11 -8 26 3 22
20 37 93 79 50 28 106 63 125 78 31 23 112 64 132 66 4 1 7 -3 7 -7z m30 -54
c0 -21 -7 -55 -16 -76 -10 -25 -14 -60 -11 -98 l3 -59 3 65 3 65 13 -80 c21
-131 45 -179 156 -313 55 -67 112 -128 127 -136 19 -10 41 -12 77 -6 50 8 114
3 116 -9 0 -3 2 -15 4 -25 2 -12 -9 -32 -30 -53 -24 -24 -28 -32 -15 -28 23 7
24 4 9 -27 -13 -30 -81 -78 -109 -78 -19 0 -21 2 -10 16 12 13 10 14 -14 3
-29 -14 -103 -1 -159 28 -33 16 -180 154 -173 161 3 2 0 14 -6 25 -6 12 11 0
38 -27 83 -80 207 -142 279 -137 17 1 49 6 72 12 32 9 39 14 30 23 -8 10 -15
8 -29 -6 -18 -18 -78 -25 -78 -9 0 31 14 41 59 41 40 0 131 31 131 44 0 3 -21
-4 -46 -16 -140 -62 -333 43 -426 231 -18 36 -36 68 -40 69 -5 2 -8 11 -8 20
0 10 -4 23 -9 31 -7 11 -13 11 -32 -3 -30 -21 -39 -20 -39 2 0 18 67 59 77 48
3 -3 15 -34 27 -69 77 -229 288 -375 452 -312 55 21 54 30 -1 10 -106 -37
-208 -5 -311 100 -113 114 -157 230 -158 415 -1 112 19 233 35 209 5 -8 9 -31
9 -51z m-55 -57 c-6 -26 -29 -51 -49 -51 -8 0 5 32 27 63 23 34 31 29 22 -12z
m-20 -106 c-37 -22 -48 -35 -17 -20 31 15 32 15 32 -7 0 -13 3 -40 6 -60 5
-31 4 -38 -10 -38 -11 0 -16 9 -16 31 0 24 -4 30 -15 25 -8 -3 -22 -9 -30 -12
-18 -7 -18 0 -4 66 8 38 17 54 37 64 26 14 27 13 30 -12 3 -17 -2 -30 -13 -37z
m-238 -50 c7 -20 -6 -34 -16 -17 -5 9 -13 6 -26 -10 -11 -13 -13 -17 -5 -10
27 23 32 12 11 -24 -12 -19 -21 -38 -21 -41 0 -12 42 32 51 52 6 17 8 17 8 3
1 -18 -55 -88 -70 -88 -5 0 -8 25 -8 55 1 47 6 59 27 75 30 24 41 25 49 5z
m636 -113 c53 -40 97 -76 97 -81 0 -4 -7 -16 -15 -27 -14 -19 -14 -19 -15 3 0
12 -3 24 -8 26 -4 3 -7 -33 -7 -79 0 -46 -3 -84 -7 -84 -4 0 -37 12 -74 27
-54 22 -68 33 -80 61 -8 19 -14 38 -14 43 0 5 26 -5 59 -21 32 -17 67 -30 77
-30 11 0 -15 16 -56 34 -41 19 -78 32 -82 30 -12 -7 -20 76 -13 136 6 54 9 58
24 47 9 -6 60 -45 114 -85z m-410 53 c3 -18 -1 -29 -14 -35 -29 -16 -39 -12
-39 19 0 27 7 33 41 40 4 0 9 -10 12 -24z m991 -29 c31 -15 60 -34 65 -44 14
-26 2 -212 -15 -239 -14 -22 -57 -32 -67 -15 -3 4 10 29 28 57 33 48 36 72 9
61 -19 -7 -18 0 5 32 25 36 33 85 18 106 -11 16 -17 16 -55 4 -23 -7 -42 -16
-42 -20 0 -4 12 -3 28 2 54 16 56 15 60 -9 3 -16 -6 -32 -27 -52 -17 -15 -31
-35 -31 -43 0 -19 30 -35 50 -28 8 3 3 -9 -12 -26 -15 -18 -29 -40 -33 -51 -5
-17 -16 -18 -123 -17 -108 1 -117 3 -120 21 -2 11 -16 32 -30 48 l-26 27 35 0
c45 0 62 12 57 41 -2 15 -17 30 -43 43 -30 16 -40 27 -40 46 0 19 5 24 20 22
11 -1 38 -5 60 -7 l40 -5 -35 11 c-95 29 -128 20 -144 -41 l-7 -25 14 24 c17
28 24 19 23 -31 -1 -20 1 -36 4 -35 3 1 16 -6 30 -16 16 -11 19 -17 9 -17 -8
0 -20 5 -25 10 -25 25 -9 -27 16 -55 51 -54 45 -67 -40 -86 -120 -28 -170 1
-170 97 0 27 6 46 17 55 9 8 29 41 44 74 36 81 59 100 119 100 26 0 46 4 43 9
-4 5 44 7 115 4 103 -5 129 -10 176 -32z m-962 -92 c7 -24 4 -32 -14 -47 -21
-18 -22 -18 -34 5 -18 32 -17 55 4 67 24 15 35 9 44 -25z m-242 1 c0 -8 -64
-45 -77 -45 -7 0 -13 5 -13 10 0 6 8 10 18 10 9 1 28 7 42 15 29 16 30 17 30
10z m218 -227 l33 -48 -28 -34 -27 -35 -37 27 c-117 86 -218 168 -216 174 1 5
42 34 92 67 l89 58 31 -81 c17 -44 45 -102 63 -128z m57 150 c15 -31 15 -33
-9 -57 l-25 -25 -17 39 c-16 38 -15 40 6 57 12 10 24 18 25 18 2 0 11 -14 20
-32z m41 -73 c15 -24 15 -27 0 -44 -9 -9 -16 -22 -16 -27 0 -5 9 2 19 16 l19
24 21 -24 c24 -30 24 -30 6 -54 -15 -19 -16 -19 -46 10 -17 16 -40 42 -51 57
-19 27 -19 29 -3 48 24 25 31 24 51 -6z m264 -15 c30 -12 65 -26 78 -31 33
-13 28 -39 -8 -40 -16 -1 -35 -2 -41 -3 -18 -2 -76 46 -95 78 -13 22 -14 28
-3 24 8 -4 39 -16 69 -28z m565 -49 c18 -7 18 -10 -12 -40 -28 -28 -39 -32
-80 -30 -27 1 -73 -1 -103 -5 -46 -6 -61 -3 -87 13 -18 12 -33 25 -33 29 0 24
267 51 315 33z m-711 -93 l-15 -29 -29 21 c-35 25 -35 24 -14 55 l16 24 28
-21 c28 -20 28 -22 14 -50z m51 6 c21 -14 23 -19 13 -38 -6 -11 -12 -22 -13
-24 -3 -3 -43 15 -53 23 -4 3 20 55 25 55 2 0 15 -7 28 -16z m95 -43 c0 -22
-27 -39 -52 -34 -30 6 -34 14 -18 43 9 16 15 17 40 8 17 -5 30 -13 30 -17z"/>
<path d="M1042 2521 c-7 -21 -12 -67 -12 -102 0 -86 23 -122 96 -156 72 -33
80 -24 12 15 -30 16 -60 37 -67 46 -21 25 -30 92 -21 165 5 36 7 67 6 68 -2 2
-8 -14 -14 -36z"/>
<path d="M2041 2366 c-15 -51 -34 -71 -111 -115 -56 -33 -34 -33 31 0 48 24
87 71 95 115 9 51 0 51 -15 0z"/>
<path d="M1235 1620 c-8 -14 3 -30 21 -30 8 0 14 9 14 20 0 21 -24 28 -35 10z"/>
<path d="M1140 1599 c0 -32 60 -135 102 -174 24 -22 38 -34 31 -26 -6 7 -9 20
-6 28 3 7 2 13 -3 12 -20 -3 -28 2 -15 10 10 7 5 17 -25 44 -22 19 -49 55 -61
78 -13 24 -23 37 -23 28z"/>
<path d="M773 2149 c-37 -11 -48 -35 -33 -74 7 -19 15 -25 26 -21 9 3 29 6 45
6 20 0 28 4 23 11 -5 8 12 10 57 6 42 -4 54 -3 34 2 -43 12 -105 13 -105 1 0
-5 -16 -10 -35 -10 -31 0 -35 3 -35 26 l0 26 79 -4 c61 -2 77 0 69 9 -7 9 -3
10 20 3 17 -4 37 -12 45 -17 26 -14 117 -101 117 -111 0 -5 -17 -21 -38 -36
-39 -26 -82 -35 -82 -16 0 6 -12 22 -26 35 l-27 25 24 0 c13 1 38 7 54 15 17
8 21 13 10 10 -85 -18 -95 -18 -114 6 -11 13 -22 21 -25 18 -3 -3 19 -32 50
-64 52 -55 55 -60 37 -73 -17 -13 -16 -14 7 -8 51 13 140 62 146 79 6 19 -50
88 -115 140 -30 24 -42 27 -105 26 -39 0 -85 -5 -103 -10z"/>
<path d="M1246 1850 c17 -67 77 -87 144 -50 l35 20 -30 -6 c-16 -4 -38 -11
-48 -16 -31 -16 -65 0 -87 40 -14 25 -19 29 -14 12z"/>
<path d="M1821 1496 c2 -2 29 -7 59 -10 37 -3 47 -2 30 4 -25 8 -97 13 -89 6z"/>
<path d="M1521 1349 c-1 -63 31 -94 97 -93 26 0 56 6 67 13 18 11 17 11 -10 5
-86 -22 -133 3 -146 78 l-6 43 -2 -46z"/>
<path d="M1810 1335 l-35 -14 40 7 c50 9 101 8 140 -1 29 -8 29 -7 -4 8 -40
18 -94 18 -141 0z"/>
<path d="M965 1275 c4 -11 10 -30 13 -43 4 -23 3 -23 -44 -18 l-49 6 35 -14
c21 -8 43 -10 56 -5 12 4 25 5 29 1 4 -4 -3 13 -15 38 -24 48 -38 68 -25 35z"/>
<path d="M1638 1102 c-8 -34 3 -75 23 -88 8 -5 9 -3 3 7 -5 8 -11 37 -14 64
-5 48 -6 49 -12 17z"/>
<path d="M829 831 l-22 -18 20 -29 c11 -16 22 -52 25 -81 3 -29 11 -59 18 -68
15 -18 67 -20 72 -4 3 9 9 9 26 0 13 -7 45 -9 84 -6 78 7 104 7 195 1 53 -4
74 -1 83 9 10 12 17 11 46 -2 29 -14 37 -15 58 -3 21 11 30 10 62 -5 26 -12
47 -15 73 -10 20 4 55 7 77 6 26 0 46 5 54 14 10 12 16 12 34 2 11 -6 39 -13
61 -14 22 -1 59 -5 82 -9 24 -3 57 -1 74 5 20 7 37 7 48 1 12 -6 24 -5 39 5
17 13 24 13 47 1 20 -10 34 -11 58 -3 18 5 38 11 45 13 6 2 11 14 11 26 l-2
23 -4 -22 c-5 -24 -18 -30 -28 -13 -4 6 -1 17 5 25 10 12 10 15 0 15 -9 0 -10
12 -6 45 8 53 -10 88 -56 104 -41 15 -101 14 -116 -1 -10 -10 -17 -10 -32 0
-24 14 -116 16 -125 2 -3 -6 -23 -7 -44 -4 -27 4 -40 2 -50 -9 -11 -14 -16
-14 -43 3 -25 15 -35 16 -55 7 -17 -8 -27 -7 -35 1 -17 17 -77 15 -112 -3 -28
-15 -66 -12 -66 5 0 10 -17 7 -53 -10 -21 -10 -30 -11 -39 -2 -19 19 -63 14
-83 -8 -23 -26 -31 -25 -67 5 -38 32 -54 32 -88 -5 -33 -35 -45 -37 -59 -11
-23 42 -168 58 -212 22z m187 -35 c19 -27 18 -52 -4 -74 -18 -18 -18 -19 0
-42 23 -28 23 -40 0 -40 -10 0 -28 14 -40 30 -28 38 -48 39 -47 3 0 -21 -5
-28 -19 -28 -16 0 -19 9 -20 75 -1 74 -1 75 -28 78 -16 2 -28 8 -28 14 0 6 31
9 86 7 71 -3 88 -7 100 -23z m185 -64 c33 -72 36 -84 22 -89 -11 -4 -22 1 -31
15 -20 30 -87 31 -95 2 -4 -17 -47 -31 -47 -15 0 2 18 43 40 91 29 63 44 85
56 82 10 -2 33 -38 55 -86z m145 37 l39 -50 3 50 c3 43 6 51 23 51 17 0 19 -7
19 -90 0 -109 -9 -114 -70 -35 -23 30 -44 55 -46 55 -2 0 -2 -24 -1 -52 2 -46
0 -53 -17 -53 -17 0 -19 8 -18 83 1 100 -1 92 16 92 8 0 31 -23 52 -51z m259
38 c29 -22 10 -38 -37 -31 -33 6 -44 4 -55 -11 -33 -45 -2 -88 60 -83 47 4 59
-13 22 -30 -40 -18 -71 -14 -102 12 -61 52 -21 156 61 156 18 0 40 -6 51 -13z
m85 -22 c0 -32 2 -35 30 -35 28 0 30 3 30 35 0 28 4 35 20 35 19 0 20 -7 20
-91 0 -81 -2 -90 -17 -87 -13 2 -19 14 -21 41 -3 34 -6 37 -33 37 -27 0 -29
-2 -29 -40 0 -33 -3 -40 -20 -40 -19 0 -20 7 -20 90 0 83 1 90 20 90 16 0 20
-7 20 -35z m268 18 c-2 -14 -14 -18 -43 -19 -29 0 -41 -5 -43 -17 -3 -14 4
-17 37 -17 55 0 58 -27 4 -32 -27 -2 -39 -8 -41 -20 -3 -15 4 -18 42 -18 40 0
46 -3 46 -20 0 -19 -5 -21 -61 -18 l-62 3 1 83 c0 45 1 84 1 87 1 3 28 5 62 5
52 0 60 -2 57 -17z m168 -8 c19 -26 17 -52 -5 -74 -18 -18 -18 -19 0 -42 23
-30 24 -39 1 -39 -10 0 -28 14 -40 30 -29 39 -54 40 -50 3 2 -22 -1 -28 -17
-28 -18 0 -20 8 -23 74 -2 41 0 81 3 89 8 22 113 11 131 -13z"/>
<path d="M928 785 c-3 -3 -3 -17 0 -30 3 -18 11 -25 28 -25 32 0 43 29 19 46
-20 15 -38 18 -47 9z"/>
<path d="M1132 745 c-16 -35 -16 -35 13 -35 28 0 30 5 12 38 l-13 23 -12 -26z"/>
<path d="M2030 755 c0 -24 3 -26 33 -23 24 2 32 8 32 23 0 15 -8 21 -32 23
-30 3 -33 1 -33 -23z"/>
</g>
</svg>
